<?xml version="1.0" encoding="UTF-8" standalone="no"?>
<!-- Created with Inkscape (http://www.inkscape.org/) -->

<svg
   version="1.1"
   id="svg1"
   width="853.64673"
   height="788.30865"
   viewBox="0 0 853.64676 788.30868"
   xml:space="preserve"
   xmlns="http://www.w3.org/2000/svg"
   xmlns:svg="http://www.w3.org/2000/svg"><defs
     id="defs1" /><g
     id="g1"
     transform="translate(-255.8433,-288.51229)"><path
       style="fill:#0c1a1a"
       d="m 675.1073,1103.5768 -5.33333,-1.5769 -4,-2.6483 -4,-2.6483 -1.33333,-1.4788 -1.33333,-1.4788 -16,-14.5922 -16,-14.5923 -22,-19.7917 -22,-19.7918 -6.66667,-5.8737 -6.66666,-5.8737 -4.66667,-4.3888 -4.66667,-4.3888 -13.99999,-12.60065 -14,-12.60061 -30.66667,-27.2582 -30.66666,-27.25819 -10.04045,-9.36755 -10.04045,-9.36755 -7.29289,-6.4649 -7.29288,-6.4649 -13.33333,-12.29785 -13.33333,-12.29785 -13.33334,-11.82977 -13.33333,-11.82976 -8.83682,-8.07415 -8.83683,-8.07415 -1.82984,-1.43163 -1.82984,-1.43163 -16.44419,-18.64145 -16.44419,-18.64144 -11.14829,-15.92692 -11.1483,-15.92693 -9.00131,-15.87715 -9.00131,-15.87716 -7.56552,-18.12284 -7.56552,-18.12284 -4.72444,-14.66667 -4.72445,-14.66667 -3.65164,-17.33333 -3.65164,-17.33333 -0.62128,-29.52944 -0.62128,-29.52943 1.58588,-13.8039 1.58588,-13.80389 3.28759,-14 3.28759,-14 2.47744,-8.02341 2.47744,-8.0234 4.76369,-12.33477 4.76369,-12.33477 7.55468,-14.76929 7.55468,-14.76929 10.89524,-15.24014 10.89524,-15.24014 12.46997,-13.42644 12.46998,-13.42644 12.12218,-9.66873 12.12219,-9.66873 8,-5.32104 8,-5.32104 8.66666,-4.80991 8.66667,-4.8099 16.66667,-6.57384 16.66666,-6.57383 7.33334,-2.08854 7.33333,-2.08854 14,-2.69714 14,-2.69714 13.93981,-1.55258 13.93981,-1.55258 14.72685,0.92542 14.72686,0.92541 14.6937,2.50539 14.69371,2.50539 11.30629,3.54111 11.30629,3.54112 9.79034,4.04314 9.79034,4.04314 11.9276,6.48087 11.9276,6.48086 13.36217,10.11929 13.36218,10.11929 13.08289,12.55727 13.08289,12.55727 h 2.55951 2.55951 l 11.27748,-11.51114 11.27749,-11.51113 8.66666,-6.9898 8.66667,-6.9898 10.40243,-6.94727 10.40243,-6.94726 13.59757,-6.39979 13.59757,-6.39978 10.66666,-3.60728 10.66667,-3.60728 15.33333,-3.21341 15.33333,-3.21341 15.86679,-1.57552 15.86679,-1.57552 18.28023,1.63553 18.28024,1.63552 13.96592,3.15572 13.96592,3.15571 12.55372,4.18472 12.55372,4.18472 14.80676,7.09649 14.80676,7.09648 12.20934,8.15347 12.20935,8.15347 6.9839,5.45529 6.9839,5.45528 11.1839,10.89633 11.1839,10.89633 10.0578,12 10.0579,11.99999 6.9301,10.66667 6.9301,10.66667 6.0907,11.33333 6.0906,11.33333 6.1744,15.33333 6.1743,15.33334 4.4609,17.33333 4.461,17.33333 2.1022,14.17112 2.1022,14.17111 v 24.06574 24.06574 l -1.3846,10.42981 -1.3847,10.42981 -2.7535,14 -2.7535,14 -4.6222,15.33333 -4.6222,15.33333 -5.2288,13.00064 -5.2289,13.00063 -7.4924,14.93942 -7.4924,14.93942 -7.9623,12.63853 -7.9623,12.63853 -10.0327,13.08863 -10.0327,13.08862 -11.96,12.63744 -11.9601,12.63744 -20.24979,19.02868 -20.24982,19.02868 -24.62386,22 -24.62387,22 -24.03077,21.99999 -24.03078,22 -19.87767,18 -19.87767,18 -23.58094,21.33336 -23.58095,21.3333 -29.04382,26.6667 -29.04382,26.6666 -11.4898,10.3465 -11.4898,10.3465 -5.33334,2.5673 -5.33333,2.5673 -4.66667,0.6631 -4.66666,0.663 z m 25.33334,-69.1262 17.33333,-16.1758 36.66666,-33.40017 36.66667,-33.40021 11.99314,-10.73724 11.99314,-10.73724 39.22233,-35.99999 39.22232,-36 24.11786,-21.86142 24.11787,-21.86142 8.66666,-7.96812 8.66667,-7.96812 17.82965,-17.50379 17.82965,-17.50379 8.33331,-10.66667 8.3332,-10.66666 6.0049,-9.33334 6.0049,-9.33333 7.5077,-14.99552 7.5078,-14.99552 5.1201,-13.00448 5.1201,-13.00448 2.0716,-6.66666 2.0715,-6.66667 2.6881,-11.33333 2.688,-11.33333 1.77,-8 1.7699,-8 -0.061,-30.66667 -0.062,-30.66666 -2.9511,-13.24742 -2.9512,-13.24741 -5.2483,-15.69738 -5.2484,-15.69739 -5.3113,-11.0552 -5.3114,-11.0552 -9.2201,-14 -9.2201,-14 -9.5703,-10.96247 -9.57036,-10.96248 -10.76754,-9.31993 -10.76753,-9.31993 -11.91522,-8.16089 -11.91521,-8.16088 -12.27973,-5.80526 -12.27972,-5.80525 -10.58046,-3.44323 -10.58047,-3.44324 -12.75287,-2.59497 -12.75286,-2.59497 -12.66667,-0.87679 -12.66667,-0.87679 -14.63146,1.58521 -14.63146,1.5852 -8.0352,1.87041 -8.03521,1.8704 -10,3.40701 -10,3.40702 -10.65929,5.446 -10.65929,5.44601 -7.34071,4.83096 -7.3407,4.83096 -13.08874,12.64478 -13.08873,12.64478 -5.92171,8.90753 -5.92171,8.90752 -3.29952,7.2071 -3.29952,7.20711 -0.77957,25.24231 -0.77957,25.24231 -2.70398,4.6889 -2.70397,4.68889 -3.98593,3.19481 -3.98594,3.19481 -5.51174,1.89895 -5.51175,1.89895 -4.21806,-0.79131 -4.21806,-0.79131 -5.44292,-3.94283 -5.44291,-3.94283 -2.37046,-4.35962 -2.37046,-4.35962 -0.7147,-26 -0.7147,-25.99999 -4.17353,-8.0527 -4.17354,-8.0527 -7.87717,-10.61397 -7.87716,-10.61396 -9.24531,-8.46678 -9.2453,-8.46678 -10.66667,-7.05514 -10.66666,-7.05515 -9.71801,-4.85402 -9.718,-4.85403 -11.61533,-3.87438 -11.61533,-3.87438 -12.66666,-2.32438 -12.66667,-2.32438 -21.33333,0.0305 -21.33333,0.0305 -13.58455,2.88605 -13.58454,2.88605 -11.74879,4.14671 -11.74879,4.14671 -12.66666,6.36379 -12.66667,6.36379 -10.55287,7.58037 -10.55286,7.58036 -7.97091,6.90062 -7.9709,6.90062 -10.6831,12 -10.68309,12 -8.51913,12.93849 -8.51914,12.9385 -5.97238,12.01935 -5.97238,12.01935 -5.21433,15.70882 -5.21432,15.70882 -2.00325,10 -2.00325,10 -1.59392,16.66666 -1.59392,16.66667 0.80791,16.18372 0.8079,16.18372 1.47893,9.81628 1.47893,9.81628 3.92586,15.73187 3.92587,15.73188 4.82164,12.93479 4.82165,12.93479 6.92078,14.66666 6.92077,14.66667 5.70754,9.33333 5.70753,9.33333 9.46944,13.33334 9.46944,13.33333 11.37778,11.84537 11.37778,11.84536 21.33333,19.58075 21.33334,19.58075 14.74653,13.24055 14.74653,13.24055 21.92013,20.12119 21.92013,20.12119 32.74674,29.21214 32.74674,29.21214 21.91993,20.12642 21.91992,20.12643 25.29129,22.54028 25.29128,22.5402 7.37538,6.9514 7.37538,6.9514 0.66667,0.028 0.66666,0.029 z m -347.99998,-412.85288 -4,-2.54928 -2.28248,-2.57304 -2.28249,-2.57303 -2.05085,-4.90838 -2.05085,-4.90838 v -19.86817 -19.86817 l 1.96968,-11.29495 1.96967,-11.29495 4.01845,-12.29692 4.01844,-12.29692 7.32403,-14.24945 7.32404,-14.24944 8.78298,-11.60567 8.78299,-11.60567 11.79474,-11.22423 11.79474,-11.22422 10.30819,-6.89454 10.30818,-6.89453 10.80193,-5.20301 10.80193,-5.203 10.66667,-3.46337 10.66667,-3.46338 8.66666,-1.48844 8.66667,-1.48844 5.02851,0.94502 5.0285,0.94501 4.84747,4.25613 4.84746,4.25614 2.42808,5.34476 2.42808,5.34477 0.0293,3.7985 0.0293,3.79849 -2.1204,4.46843 -2.12041,4.46842 -4.63534,3.53555 -4.63534,3.53555 -14.23654,3.96568 -14.23654,3.96569 -10.59425,5.342 -10.59425,5.342 -6.08013,4.15978 -6.08012,4.15978 -10.9076,10.87576 -10.90759,10.87575 -7.47666,11.4702 -7.47666,11.47021 -3.41788,7.71744 -3.41788,7.71743 -2.6225,10 -2.62251,10 -0.70936,22 -0.70937,22 -2.57955,5.51783 -2.57955,5.51782 -5.39426,3.73823 -5.39427,3.73822 -7.55884,0.48414 -7.55885,0.48414 z"
       id="path33"
       transform="translate(0.38266098,-28.332634)" /><path
       style="fill:#f5f1e8;fill-opacity:1;stroke-width:1.45386"
       d="m 677.11829,1019.6594 c -16.09612,-14.1826 -62.16369,-55.70771 -84.84755,-76.48131 -13.99337,-12.81495 -37.54586,-34.06366 -52.33886,-47.21934 -14.793,-13.15568 -38.01837,-34.10419 -51.61194,-46.55226 -13.59356,-12.44806 -31.91216,-29.12431 -40.708,-37.05832 -64.45461,-58.13924 -75.9812,-70.01593 -94.17718,-97.03769 -18.9112,-28.0839 -33.59918,-60.76814 -41.67087,-92.72762 -11.94841,-47.30911 -11.02178,-88.89472 2.97137,-133.34942 17.29685,-54.95024 57.31672,-103.24772 105.60018,-127.44231 30.51905,-15.29292 54.24385,-21.25659 84.56351,-21.25659 56.01429,0 107.38469,24.31326 136.69465,64.69665 15.1382,20.8575 15.58785,22.28515 16.48416,52.33887 0.87168,29.22767 1.75362,32.28977 11.12784,38.63604 10.24374,6.93491 19.8997,6.32102 29.87219,-1.89915 8.41515,-6.93647 9.14036,-9.59158 10.2431,-37.50157 1.11963,-28.33711 2.25849,-32.45986 13.51126,-48.91126 7.84555,-11.4701 32.42664,-35.10121 43.28453,-41.61171 39.34814,-23.59355 82.60785,-31.18631 126.56873,-22.2148 27.70532,5.65408 48.31042,14.12524 70.31897,28.90954 24.3258,16.34086 43.73012,35.91779 61.31072,61.85592 11.7971,17.40526 18.9308,32.2108 26.3662,54.72185 9.4874,28.72354 11.1854,39.46535 11.1854,70.76123 0,26.88741 -0.1907,28.72717 -5.24,50.53692 -8.7847,37.94379 -23.5971,72.81583 -43.2705,101.86895 -13.3146,19.66262 -38.16302,45.21156 -89.60598,92.13222 -21.9896,20.05652 -55.70581,50.87484 -74.92495,68.48514 -19.21912,17.61031 -59.1275,54.01445 -88.6853,80.89809 -29.55777,26.88365 -58.98581,53.78533 -65.3956,59.78163 l -11.65417,10.9022 z M 378.24448,595.17977 c 8.39402,-5.97706 9.97065,-11.31809 11.04567,-37.4185 1.01447,-24.6304 3.18966,-35.54033 10.09181,-50.6166 6.19911,-13.54064 17.59748,-28.773 31.69217,-42.35224 16.06539,-15.47787 32.39246,-24.73054 55.08373,-31.21636 15.15044,-4.33044 22.25458,-8.44987 25.56551,-14.8245 4.5852,-8.82806 1.07789,-22.105 -7.7963,-29.51281 -4.88544,-4.07817 -5.98733,-4.3556 -16.95838,-4.26974 -13.39925,0.10486 -33.13668,5.82323 -50.79785,14.71726 -31.28072,15.75272 -61.39518,45.97803 -77.28123,77.56572 -14.39255,28.61802 -19.59004,50.45503 -19.59004,82.3066 0,17.76135 0.42418,21.80539 2.76623,26.37229 2.7943,5.44878 7.47314,10.41812 12.12932,12.88241 4.31152,2.28186 18.82048,0.0898 24.04936,-3.63353 z"
       id="path57" /></g></svg>
